<svg version="1.0" xmlns="http://www.w3.org/2000/svg"
 width="290" height="272" viewBox="0 0 290 272"
 preserveAspectRatio="xMidYMid meet">
<g transform="translate(0,272) scale(0.1,-0.1)" fill="currentColor" stroke="none">
<path d="M704 2116 c-40 -18 -71 -58 -85 -110 -17 -63 -6 -547 14 -607 26 -80
67 -151 118 -205 65 -68 114 -101 191 -129 l63 -23 8 -78 c17 -163 72 -281
178 -382 101 -97 225 -145 374 -146 146 -1 275 54 385 164 125 125 160 230
160 482 l0 168 40 20 c131 67 192 226 140 364 -60 158 -243 235 -397 167 -60
-26 -125 -92 -154 -154 -26 -57 -26 -176 0 -233 25 -55 85 -121 133 -145 l39
-20 -3 -182 c-3 -172 -4 -185 -29 -237 -33 -70 -99 -136 -169 -169 -47 -22
-69 -26 -150 -26 -89 0 -99 2 -158 34 -120 65 -186 171 -187 299 l0 74 64 23
c121 44 209 121 270 234 55 104 61 147 61 446 0 311 -3 323 -80 363 -37 18
-60 22 -140 22 -110 0 -138 -11 -163 -62 -16 -33 -17 -40 -3 -72 19 -45 60
-66 131 -66 l55 0 0 -237 c0 -228 -1 -240 -24 -288 -48 -104 -144 -167 -264
-173 -66 -4 -79 -1 -137 27 -65 32 -113 80 -151 151 -17 31 -19 63 -22 276
l-3 242 72 4 c65 3 74 6 100 36 44 49 35 112 -21 145 -36 21 -209 23 -256 3z
m1380 -512 c51 -52 35 -138 -31 -169 -43 -21 -76 -13 -114 25 -65 65 -20 170
74 170 35 0 50 -6 71 -26z"/>
</g>
</svg>
